<?xml version="1.0" encoding="UTF-8" standalone="no"?>
<svg
   fill="#ffffff"
   width="512"
   height="512"
   viewBox="0 -8 46.08 46.079999"
   id="Layer_1"
   data-name="Layer 1"
   version="1.1"
   sodipodi:docname="logo.svg"
   xml:space="preserve"
   inkscape:version="1.3 (0e150ed6c4, 2023-07-21)"
   inkscape:export-filename="../../../../../home/k4my4b/Downloads/favicon.svg"
   inkscape:export-xdpi="96"
   inkscape:export-ydpi="96"
   xmlns:inkscape="http://www.inkscape.org/namespaces/inkscape"
   xmlns:sodipodi="http://sodipodi.sourceforge.net/DTD/sodipodi-0.dtd"
   xmlns="http://www.w3.org/2000/svg"
   xmlns:svg="http://www.w3.org/2000/svg"
   xmlns:rdf="http://www.w3.org/1999/02/22-rdf-syntax-ns#"
   xmlns:cc="http://creativecommons.org/ns#"
   xmlns:dc="http://purl.org/dc/elements/1.1/"><defs
     id="defs1" /><sodipodi:namedview
     id="namedview1"
     pagecolor="#a56969"
     bordercolor="#000000"
     borderopacity="0.25"
     inkscape:showpageshadow="2"
     inkscape:pageopacity="0.0"
     inkscape:pagecheckerboard="true"
     inkscape:deskcolor="#d1d1d1"
     showguides="true"
     inkscape:zoom="1.6778991"
     inkscape:cx="167.47134"
     inkscape:cy="84.629643"
     inkscape:window-width="2560"
     inkscape:window-height="1522"
     inkscape:window-x="0"
     inkscape:window-y="36"
     inkscape:window-maximized="1"
     inkscape:current-layer="Layer_1"
     labelstyle="default"
     inkscape:lockguides="false"><sodipodi:guide
       position="1.8001406,56.771507"
       orientation="1,0"
       id="guide1"
       inkscape:locked="false" /><sodipodi:guide
       position="46.08,20.762959"
       orientation="1,0"
       id="guide2"
       inkscape:locked="false" /><sodipodi:guide
       position="44.279999,86.338687"
       orientation="1,0"
       id="guide3"
       inkscape:locked="false" /><sodipodi:guide
       position="0,44.369999"
       orientation="1,0"
       id="guide4"
       inkscape:locked="false" /><sodipodi:guide
       position="49.95,39.33"
       orientation="0,1"
       id="guide5"
       inkscape:locked="false"
       inkscape:label=""
       inkscape:color="rgb(0,134,229)" /></sodipodi:namedview><title
     id="title1">docker-cloud</title><rect
     style="fill:#0089c9;fill-opacity:1;stroke-width:0.09"
     id="rect3"
     width="46.080002"
     height="46.080002"
     x="0"
     y="-8"
     ry="6.7499995" /><path
     id="path1"
     d="M 25.786847,2.4239325 A 10.400912,10.400912 0 0 0 15.945739,10.848924 H 15.549251 A 8.3878316,8.3878316 0 0 0 7.5121696,16.812028 H 7.024137 a 5.4292147,5.4292147 0 0 0 0,10.850685 h 29.509918 a 7.7701821,7.7701821 0 0 0 0,-15.540289 v -0.03057 A 10.400912,10.400912 0 0 0 25.786847,2.4239325 Z m 0.474762,6.6280699 c 0.124066,0 0.248184,0.031208 0.360163,0.093425 l 6.31402,3.5076536 -2.551692,1.417594 -6.674044,-3.70791 2.191391,-1.2173367 c 0.111981,-0.062217 0.236098,-0.093425 0.360162,-0.093426 z m -4.122486,2.1790646 6.674042,3.707773 -2.551556,1.417592 -6.674179,-3.707773 z m -3.293192,2.702216 6.674045,3.707908 v 7.415681 L 19.22727,21.560878 c -0.235426,-0.130813 -0.381339,-0.378872 -0.381339,-0.648209 z m 14.83136,0 v 6.979386 c 0,0.269337 -0.146025,0.517396 -0.381474,0.648209 l -6.292705,3.495994 v -7.415681 z"
     style="stroke-width:0.762532" /><metadata
     id="metadata1"><rdf:RDF><cc:Work
         rdf:about=""><dc:title>docker-cloud</dc:title></cc:Work></rdf:RDF></metadata></svg>
